<?xml version="1.0" encoding="iso-8859-1"?>
<!-- Generator: Adobe Illustrator 19.0.0, SVG Export Plug-In . SVG Version: 6.00 Build 0)  -->
<svg version="1.1" id="Layer_1" xmlns="http://www.w3.org/2000/svg" xmlns:xlink="http://www.w3.org/1999/xlink" x="0px" y="0px"
	 viewBox="0 0 504 504" style="enable-background:new 0 0 504 504;" xml:space="preserve">
<circle style="fill:#FFD05B;" cx="252" cy="252" r="252"/>
<polygon style="fill:#324A5E;" points="75.7,201.9 168.8,312.3 357.6,312.3 365,246.9 "/>
<polygon style="fill:#FF7058;" points="168.1,162.7 134.7,211.1 270.5,232.2 "/>
<g>
	<polygon style="fill:#2B3B4E;" points="365,232.8 357.6,312.3 383.2,312.3 396.5,238.6 	"/>
	<path style="fill:#2B3B4E;" d="M404.9,216.5l-41.6-6.6c-2.4-0.4-4.7,1.3-5.1,3.7l-2.3,14.5c-0.4,2.4,1.3,4.7,3.7,5.1l41.6,6.6
		c2.4,0.4,4.7-1.3,5.1-3.7l2.3-14.5C409,219.2,407.3,216.9,404.9,216.5z"/>
</g>
<path style="fill:#4CDBC4;" d="M373,291.9c-16.1,0-30.5,7.6-37.5,19.4c-7-11.8-21.4-19.4-37.5-19.4s-30.5,7.6-37.5,19.4
	c-7-11.8-21.4-19.4-37.5-19.4c-15.9,0-30.2,7.5-37.3,19.2c-7.1-11.6-21.4-19.2-37.3-19.2c-23.1,0-41.9,15.8-41.9,35.2
	c0,3.8,0.8,7.6,2.3,11.3l2.3,5.7l2.3-5.7c5.2-12.8,19.3-21.4,35.1-21.4c15.3,0,28.9,7.9,34.5,20.1l0.1,0.4c0.1,0.3,0.2,0.6,0.3,0.9
	l2.4,5.8l2.3-5.8c0.1-0.3,0.2-0.6,0.3-0.9l0.1-0.3c5.6-12.3,19.2-20.2,34.5-20.2c15.8,0,29.9,8.6,35.1,21.4l2.5,5.7l2.3-5.7
	c5.2-12.8,19.3-21.4,35.1-21.4c15.8,0,29.9,8.6,35.1,21.4l2.5,5.7l2.3-5.7c5.2-12.8,19.3-21.4,35.1-21.4c15.8,0,29.9,8.6,35.1,21.4
	l2.3,5.7l2.3-5.7c1.5-3.7,2.3-7.5,2.3-11.3C414.9,307.7,396.1,291.9,373,291.9z"/>
<g>
</g>
<g>
</g>
<g>
</g>
<g>
</g>
<g>
</g>
<g>
</g>
<g>
</g>
<g>
</g>
<g>
</g>
<g>
</g>
<g>
</g>
<g>
</g>
<g>
</g>
<g>
</g>
<g>
</g>
</svg>
